<svg data-v-0dd9719b="" version="1.0" xmlns="http://www.w3.org/2000/svg" xmlns:xlink="http://www.w3.org/1999/xlink" width="100%" height="100%" viewBox="0 0 340.000000 250.000000" preserveAspectRatio="xMidYMid meet" color-interpolation-filters="sRGB" style="margin: auto;"> <rect data-v-0dd9719b="" x="0" y="0" width="100%" height="100%" fill="#fff" fill-opacity="1" class="background"></rect> <rect data-v-0dd9719b="" x="0" y="0" width="100%" height="100%" fill="url(#watermark)" fill-opacity="1" class="watermarklayer"></rect> <g data-v-0dd9719b="" fill="#26a59a" class="icon-text-wrapper icon-svg-group iconsvg" transform="translate(47.98499298095703,88.1427001953125)"><g class="iconsvg-imagesvg" transform="translate(0,0)"><g><rect fill="#26a59a" fill-opacity="0" stroke-width="2" x="0" y="0" width="60.00000000000001" height="73.71460163400701" class="image-rect"></rect> <svg x="0" y="0" width="60.00000000000001" height="73.71460163400701" filtersec="colorsb523437384" class="image-svg-svg primary" style="overflow: visible;"><svg xmlns="http://www.w3.org/2000/svg" viewBox="0 0 52.849998474121094 64.93000030517578"><g><g><path fill="#445964" d="M18.66 57.64l15.53 7.29V44.97L18.66 57.64zM34.19 7.29L18.66 0v19.96L34.19 7.29zM0 47.07l15.53 7.29V34.4L0 47.07z"></path><path fill="#26a59a" d="M0 47.16l34.19-21.24V7.29L0 28.53v18.63z"></path><path fill="#445964" d="M52.85 17.77l-15.53-7.29v19.97l15.53-12.68z"></path><path fill="#ef5250" d="M18.66 57.64L52.85 36.4V17.77L18.66 39.01v18.63z"></path></g></g></svg></svg> <!----></g></g> <g transform="translate(67,23.652299880981445)"><g data-gra="path-name" fill-rule="" class="tp-name iconsvg-namesvg"><g transform="scale(1)"><g><path d="M5.14 0.22Q4.07 0.22 3.43-0.44 2.79-1.1 2.79-2.16L2.79-2.16 2.79-23.62Q2.79-24.69 3.39-25.27 4-25.86 5.06-25.86L5.06-25.86 17.94-25.86Q20.18-25.86 20.18-23.95L20.18-23.95Q20.18-22.08 17.94-22.08L17.94-22.08 7.45-22.08 7.45-15.04 17.2-15.04Q19.44-15.04 19.44-13.13L19.44-13.13Q19.44-11.26 17.2-11.26L17.2-11.26 7.45-11.26 7.45-2.16Q7.45-1.1 6.82-0.44 6.2 0.22 5.14 0.22L5.14 0.22ZM44.24-2.97Q44.68-2.31 44.68-1.69L44.68-1.69Q44.68-0.84 44-0.29 43.32 0.26 42.4 0.26L42.4 0.26Q41.82 0.26 41.29-0.02 40.75-0.29 40.39-0.84L40.39-0.84 35.51-8.25Q34.77-9.43 33.95-9.9 33.12-10.38 31.8-10.38L31.8-10.38 28.21-10.38 28.21-2.16Q28.21-1.06 27.59-0.42 26.96 0.22 25.9 0.22L25.9 0.22Q24.83 0.22 24.19-0.42 23.55-1.06 23.55-2.16L23.55-2.16 23.55-23.62Q23.55-24.69 24.16-25.27 24.76-25.86 25.82-25.86L25.82-25.86 34.99-25.86Q39.4-25.86 41.69-23.9 43.98-21.94 43.98-18.23L43.98-18.23Q43.98-15.22 42.28-13.3 40.57-11.37 37.45-10.82L37.45-10.82Q38.52-10.56 39.32-9.9 40.13-9.24 40.9-8.07L40.9-8.07 44.24-2.97ZM34.33-14.01Q37.01-14.01 38.26-15.02 39.51-16.03 39.51-18.12L39.51-18.12Q39.51-20.25 38.26-21.22 37.01-22.19 34.33-22.19L34.33-22.19 28.17-22.19 28.17-14.01 34.33-14.01ZM59.72 0.33Q54.4 0.33 51.65-2.42 48.9-5.17 48.9-10.45L48.9-10.45 48.9-23.7Q48.9-24.76 49.52-25.4 50.14-26.04 51.21-26.04L51.21-26.04Q52.27-26.04 52.9-25.4 53.52-24.76 53.52-23.7L53.52-23.7 53.52-10.2Q53.52-6.86 55.1-5.15 56.67-3.45 59.72-3.45L59.72-3.45Q62.73-3.45 64.3-5.17 65.88-6.9 65.88-10.2L65.88-10.2 65.88-23.7Q65.88-24.76 66.5-25.4 67.13-26.04 68.19-26.04L68.19-26.04Q69.26-26.04 69.88-25.4 70.5-24.76 70.5-23.7L70.5-23.7 70.5-10.45Q70.5-5.21 67.75-2.44 65 0.33 59.72 0.33L59.72 0.33ZM78.28 0.22Q77.22 0.22 76.57-0.44 75.93-1.1 75.93-2.16L75.93-2.16 75.93-23.7Q75.93-24.76 76.57-25.4 77.22-26.04 78.28-26.04L78.28-26.04Q79.38-26.04 80.02-25.4 80.66-24.76 80.66-23.7L80.66-23.7 80.66-2.16Q80.66-1.1 80.02-0.44 79.38 0.22 78.28 0.22L78.28 0.22ZM94.71 0.18Q93.61 0.18 92.97-0.46 92.33-1.1 92.33-2.16L92.33-2.16 92.33-21.97 85.65-21.97Q83.45-21.97 83.45-23.92L83.45-23.92Q83.45-25.86 85.65-25.86L85.65-25.86 103.74-25.86Q105.94-25.86 105.94-23.92L105.94-23.92Q105.94-21.97 103.74-21.97L103.74-21.97 97.06-21.97 97.06-2.16Q97.06-1.1 96.42-0.46 95.78 0.18 94.71 0.18L94.71 0.18ZM111 0Q109.94 0 109.33-0.59 108.73-1.17 108.73-2.24L108.73-2.24 108.73-23.62Q108.73-24.69 109.33-25.27 109.94-25.86 111-25.86L111-25.86 118.26-25.86Q124.61-25.86 128.11-22.47 131.62-19.07 131.62-12.95L131.62-12.95Q131.62-6.79 128.11-3.39 124.61 0 118.26 0L118.26 0 111 0ZM117.97-3.85Q126.88-3.85 126.88-12.95L126.88-12.95Q126.88-22.01 117.97-22.01L117.97-22.01 113.46-22.01 113.46-3.85 117.97-3.85ZM159.16-2.82Q159.38-2.35 159.38-1.87L159.38-1.87Q159.38-1.03 158.71-0.44 158.03 0.15 157.15 0.15L157.15 0.15Q156.56 0.15 156.05-0.17 155.53-0.48 155.24-1.14L155.24-1.14 153.04-6.05 140.13-6.05 137.93-1.14Q137.63-0.48 137.12-0.17 136.6 0.15 135.98 0.15L135.98 0.15Q135.14 0.15 134.44-0.44 133.74-1.03 133.74-1.87L133.74-1.87Q133.74-2.35 133.96-2.82L133.96-2.82 144.09-24.58Q144.42-25.31 145.1-25.7 145.78-26.08 146.55-26.08L146.55-26.08Q147.32-26.08 147.99-25.7 148.67-25.31 149-24.58L149-24.58 159.16-2.82ZM146.58-20.62L141.74-9.72 151.42-9.72 146.58-20.62ZM176.07-25.24Q176.74-26.04 177.65-26.04L177.65-26.04Q178.5-26.04 179.16-25.4 179.82-24.76 179.82-23.88L179.82-23.88Q179.82-23.15 179.27-22.49L179.27-22.49 170.94-12.33 170.94-2.16Q170.94-1.03 170.28-0.4 169.62 0.22 168.59 0.22L168.59 0.22Q167.53 0.22 166.87-0.4 166.21-1.03 166.21-2.16L166.21-2.16 166.21-12.33 157.88-22.49Q157.33-23.15 157.33-23.88L157.33-23.88Q157.33-24.76 157.99-25.4 158.65-26.04 159.49-26.04L159.49-26.04Q160.41-26.04 161.07-25.24L161.07-25.24 168.59-15.92 176.07-25.24Z" transform="translate(-2.7899999618530273, 26.079999923706055)"></path></g> <!----> <!----> <!----> <!----> <!----> <!----> <!----></g></g> <!----></g></g><defs v-gra="od"></defs></svg>